/* XPM */
static char * BallXpm[] = {
"16 16 5 1",
" 	c None",
".	c #20FF1B",
"+	c #1FFF1B",
"@	c #1FFF1A",
"#	c #20FF1A",
"                ",
"                ",
"  ...+.@@.+...  ",
"  .+...##...+.  ",
"  ............  ",
"  ............  ",
"  ....+..+....  ",
"  +#........#+  ",
"  +#........#+  ",
"  ....+..+....  ",
"  ............  ",
"  ............  ",
"  .+...##...+.  ",
"  ...+.@@.+...  ",
"                ",
"                "};
