/* XPM */
static char * PaddleXpm[] = {
"14 60 8 1",
" 	c None",
".	c #1FFF1A",
"+	c #20FF1B",
"@	c #20FF1A",
"#	c #20FF1C",
"$	c #21FF1B",
"%	c #1FFF1B",
"&	c #21FF1C",
"     .++@     ",
"    +#+#+$    ",
"   +++++++@   ",
"  +++++++++%  ",
"  ++++++++++  ",
" $+++++++++++ ",
" &++++++++%++ ",
" $+++++++++%@ ",
" &+@+++++++%@ ",
" .+++++++++++ ",
" ++++++++++++ ",
" +@++++++++++ ",
" $++++++++++$ ",
" $++++++++%+$ ",
" $++++++++++$ ",
" $++++++++++$ ",
" $++++++++++$ ",
" $++++++++++$ ",
" $+%++++++%+$ ",
" $+%++++++%+$ ",
" $+%++++++%+$ ",
" $+%++++++%+$ ",
" $+%++++++%+$ ",
" $+%++++++%+$ ",
" $+%++++++%+$ ",
" $++++++++++$ ",
" $++++++++++$ ",
" $++++++++++$ ",
" $++++++++++$ ",
" $+%++++++%+$ ",
" $+%++++++%+$ ",
" $+%++++++%+$ ",
" $+%++++++%+$ ",
" $+%++++++%+$ ",
" $+%++++++%+$ ",
" $+%++++++%+$ ",
" $++++++++++$ ",
" $++++++++++$ ",
" $++++++++++$ ",
" $++++++++++$ ",
" $+%++++++%+$ ",
" $+%++++++%+$ ",
" $+%++++++%+$ ",
" $+%++++++%+$ ",
" $+%++++++%+$ ",
" $+%++++++%+$ ",
" $++++++++++$ ",
" $++++++++++$ ",
" ++++++++++++ ",
" ++++++++++++ ",
" ++++++++++++ ",
" @++++++++++@ ",
" @++++++++++@ ",
" $++++++++++$ ",
" %+%++++++%+% ",
"  @++++++++@  ",
"  %+++@@+++%  ",
"   +++%%+++   ",
"    %$++$%    ",
"              "};
